:FULLY-SPECIFIED
:FORCE-ALL-JOINTS-BE-3DOF
:DEGREES
324
root 9.70997 16.6821 9.1196 6.9614 9.05924 2.23738
lfemur 11.6385 4.83908 -20.5935
ltibia 18.4743 0 0
lfoot -3.10701 0.843415 0
ltoes -4.86408 0 0
rfemur -39.2509 8.72957 11.783
rtibia 31.0579 0 0
rfoot -22.3865 -9.99716 0
rtoes -17.6077 0 0
lowerback -7.41951 -4.5635 -4.82478
upperback -1.08668 -5.74181 2.52006
thorax 3.7648 -2.9536 4.67976
lowerneck -19.4902 -5.28004 -12.9414
upperneck 21.325 -6.77086 13.0989
head 11.0403 -2.63584 5.93769
lclavicle -5.30442e-014 1.22605e-014 0
lhumerus -19.823 -31.1913 95.5924
lradius 32.8309 0 0
lwrist 10.9035 0 0
lhand -10.3388 -21.8333 0
lfingers 7.12502 0 0
lthumb 15.6574 7.5531 0
rclavicle -5.30442e-014 1.22605e-014 0
rhumerus -47.7391 4.76525 -81.8347
rradius 31.7475 0 0
rwrist -16.8962 0 0
rhand -27.3602 -25.3018 0
rfingers 7.12502 0 0
rthumb -0.76799 -55.2768 0
325
root 9.6897 16.6831 9.29665 6.90252 9.13698 2.03463
lfemur 11.3263 4.95757 -20.0699
ltibia 19.8954 0 0
lfoot -2.25357 0.944399 0
ltoes -5.2506 0 0
rfemur -38.9271 8.38859 12.4726
rtibia 31.5747 0 0
rfoot -21.8425 -9.36845 0
rtoes -17.3236 0 0
lowerback -7.35243 -4.54022 -4.68111
upperback -1.1112 -5.72622 2.56814
thorax 3.69093 -2.9423 4.65781
lowerneck -19.5106 -5.29292 -12.9628
upperneck 21.2908 -6.79523 13.169
head 11.0394 -2.64004 5.9632
lclavicle -5.00352e-014 1.1491e-014 0
lhumerus -20.3341 -30.6137 95.8779
lradius 32.3463 0 0
lwrist 10.4661 0 0
lhand -10.3438 -21.8678 0
lfingers 7.12502 0 0
lthumb 15.6526 7.51903 0
rclavicle -5.00352e-014 1.1491e-014 0
rhumerus -47.628 4.76838 -81.8048
rradius 31.7227 0 0
rwrist -16.8859 0 0
rhand -27.4401 -25.2535 0
rfingers 7.12502 0 0
rthumb -0.845111 -55.2282 0
326
root 9.66943 16.6841 9.47371 6.84363 9.21472 1.83187
lfemur 11.0141 5.07605 -19.5463
ltibia 21.3165 0 0
lfoot -1.40012 1.04538 0
ltoes -5.63712 0 0
rfemur -38.6034 8.0476 13.1623
rtibia 32.0915 0 0
rfoot -21.2985 -8.73975 0
rtoes -17.0396 0 0
lowerback -7.28534 -4.51693 -4.53745
upperback -1.13572 -5.71062 2.61621
thorax 3.61705 -2.931 4.63586
lowerneck -19.531 -5.30581 -12.9842
upperneck 21.2567 -6.81961 13.2391
head 11.0386 -2.64423 5.98871
lclavicle -4.70262e-014 1.07216e-014 0
lhumerus -20.8452 -30.0362 96.1634
lradius 31.8617 0 0
lwrist 10.0286 0 0
lhand -10.3488 -21.9022 0
lfingers 7.12502 0 0
lthumb 15.6478 7.48496 0
rclavicle -4.70262e-014 1.07216e-014 0
rhumerus -47.517 4.77151 -81.7749
rradius 31.6978 0 0
rwrist -16.8757 0 0
rhand -27.5199 -25.2052 0
rfingers 7.12502 0 0
rthumb -0.922232 -55.1796 0
327
root 9.64916 16.6851 9.65076 6.78474 9.29247 1.62911
lfemur 10.7019 5.19453 -19.0228
ltibia 22.7377 0 0
lfoot -0.546677 1.14637 0
ltoes -6.02364 0 0
rfemur -38.2796 7.70661 13.8519
rtibia 32.6084 0 0
rfoot -20.7546 -8.11105 0
rtoes -16.7555 0 0
lowerback -7.21825 -4.49364 -4.39378
upperback -1.16024 -5.69503 2.66429
thorax 3.54318 -2.9197 4.6139
lowerneck -19.5515 -5.31869 -13.0056
upperneck 21.2225 -6.84398 13.3093
head 11.0378 -2.64843 6.01422
lclavicle -4.40172e-014 9.95207e-015 0
lhumerus -21.3562 -29.4586 96.4488
lradius 31.3771 0 0
lwrist 9.59121 0 0
lhand -10.3537 -21.9367 0
lfingers 7.12502 0 0
lthumb 15.643 7.4509 0
rclavicle -4.40172e-014 9.95207e-015 0
rhumerus -47.4059 4.77464 -81.7449
rradius 31.673 0 0
rwrist -16.8654 0 0
rhand -27.5998 -25.157 0
rfingers 7.12502 0 0
rthumb -0.999353 -55.131 0
328
root 9.62889 16.6861 9.82782 6.72585 9.37021 1.42635
lfemur 10.3897 5.31301 -18.4992
ltibia 24.1588 0 0
lfoot 0.306768 1.24735 0
ltoes -6.41015 0 0
rfemur -37.9559 7.36562 14.5415
rtibia 33.1252 0 0
rfoot -20.2106 -7.48235 0
rtoes -16.4715 0 0
lowerback -7.15116 -4.47035 -4.25012
upperback -1.18476 -5.67943 2.71236
thorax 3.4693 -2.9084 4.59195
lowerneck -19.5719 -5.33158 -13.027
upperneck 21.1884 -6.86836 13.3794
head 11.037 -2.65262 6.03973
lclavicle -4.10081e-014 9.18258e-015 0
lhumerus -21.8673 -28.8811 96.7343
lradius 30.8925 0 0
lwrist 9.15377 0 0
lhand -10.3587 -21.9711 0
lfingers 7.12502 0 0
lthumb 15.6382 7.41683 0
rclavicle -4.10081e-014 9.18258e-015 0
rhumerus -47.2949 4.77777 -81.715
rradius 31.6481 0 0
rwrist -16.8552 0 0
rhand -27.6796 -25.1087 0
rfingers 7.12502 0 0
rthumb -1.07647 -55.0824 0
329
root 9.60862 16.6871 10.0049 6.66697 9.44795 1.2236
lfemur 10.0775 5.4315 -17.9756
ltibia 25.5799 0 0
lfoot 1.16021 1.34834 0
ltoes -6.79667 0 0
rfemur -37.6321 7.02464 15.2312
rtibia 33.642 0 0
rfoot -19.6666 -6.85364 0
rtoes -16.1874 0 0
lowerback -7.08408 -4.44707 -4.10645
upperback -1.20928 -5.66384 2.76044
thorax 3.39543 -2.8971 4.57
lowerneck -19.5923 -5.34446 -13.0484
upperneck 21.1542 -6.89273 13.4495
head 11.0361 -2.65682 6.06524
lclavicle -3.79991e-014 8.41309e-015 0
lhumerus -22.3784 -28.3035 97.0198
lradius 30.4079 0 0
lwrist 8.71633 0 0
lhand -10.3637 -22.0056 0
lfingers 7.12502 0 0
lthumb 15.6334 7.38276 0
rclavicle -3.79991e-014 8.41309e-015 0
rhumerus -47.1838 4.7809 -81.6851
rradius 31.6233 0 0
rwrist -16.8449 0 0
rhand -27.7595 -25.0604 0
rfingers 7.12502 0 0
rthumb -1.1536 -55.0338 0
330
root 9.58835 16.6881 10.1819 6.60808 9.52569 1.02084
lfemur 9.76528 5.54998 -17.452
ltibia 27.001 0 0
lfoot 2.01366 1.44932 0
ltoes -7.18319 0 0
rfemur -37.3083 6.68365 15.9208
rtibia 34.1588 0 0
rfoot -19.1227 -6.22494 0
rtoes -15.9034 0 0
lowerback -7.01699 -4.42378 -3.96279
upperback -1.23381 -5.64824 2.80851
thorax 3.32155 -2.88579 4.54805
lowerneck -19.6127 -5.35735 -13.0698
upperneck 21.1201 -6.91711 13.5196
head 11.0353 -2.66102 6.09075
lclavicle -3.49901e-014 7.6436e-015 0
lhumerus -22.8894 -27.7259 97.3053
lradius 29.9233 0 0
lwrist 8.2789 0 0
lhand -10.3686 -22.04 0
lfingers 7.12502 0 0
lthumb 15.6287 7.34869 0
rclavicle -3.49901e-014 7.6436e-015 0
rhumerus -47.0728 4.78402 -81.6552
rradius 31.5984 0 0
rwrist -16.8346 0 0
rhand -27.8393 -25.0122 0
rfingers 7.12502 0 0
rthumb -1.23072 -54.9851 0
331
root 9.56808 16.6892 10.359 6.54919 9.60344 0.818082
lfemur 9.45307 5.66846 -16.9284
ltibia 28.4221 0 0
lfoot 2.8671 1.55031 0
ltoes -7.56971 0 0
rfemur -36.9846 6.34266 16.6104
rtibia 34.6756 0 0
rfoot -18.5787 -5.59624 0
rtoes -15.6193 0 0
lowerback -6.9499 -4.40049 -3.81913
upperback -1.25833 -5.63265 2.85659
thorax 3.24768 -2.87449 4.5261
lowerneck -19.6331 -5.37023 -13.0912
upperneck 21.086 -6.94148 13.5897
head 11.0345 -2.66521 6.11626
lclavicle -3.19811e-014 6.87411e-015 0
lhumerus -23.4005 -27.1484 97.5907
lradius 29.4386 0 0
lwrist 7.84146 0 0
lhand -10.3736 -22.0744 0
lfingers 7.12502 0 0
lthumb 15.6239 7.31463 0
rclavicle -3.19811e-014 6.87411e-015 0
rhumerus -46.9617 4.78715 -81.6253
rradius 31.5736 0 0
rwrist -16.8244 0 0
rhand -27.9192 -24.9639 0
rfingers 7.12502 0 0
rthumb -1.30784 -54.9365 0
332
root 9.54781 16.6902 10.536 6.49031 9.68118 0.615324
lfemur 9.14086 5.78695 -16.4048
ltibia 29.8432 0 0
lfoot 3.72055 1.65129 0
ltoes -7.95622 0 0
rfemur -36.6608 6.00168 17.3001
rtibia 35.1924 0 0
rfoot -18.0347 -4.96753 0
rtoes -15.3353 0 0
lowerback -6.88282 -4.3772 -3.67546
upperback -1.28285 -5.61705 2.90466
thorax 3.17381 -2.86319 4.50415
lowerneck -19.6535 -5.38311 -13.1126
upperneck 21.0518 -6.96586 13.6598
head 11.0336 -2.66941 6.14177
lclavicle -2.89721e-014 6.10462e-015 0
lhumerus -23.9116 -26.5708 97.8762
lradius 28.954 0 0
lwrist 7.40402 0 0
lhand -10.3786 -22.1089 0
lfingers 7.12502 0 0
lthumb 15.6191 7.28056 0
rclavicle -2.89721e-014 6.10462e-015 0
rhumerus -46.8506 4.79028 -81.5954
rradius 31.5488 0 0
rwrist -16.8141 0 0
rhand -27.999 -24.9156 0
rfingers 7.12502 0 0
rthumb -1.38496 -54.8879 0
333
root 9.52754 16.6912 10.7131 6.43142 9.75892 0.412567
lfemur 8.82866 5.90543 -15.8812
ltibia 31.2643 0 0
lfoot 4.57399 1.75228 0
ltoes -8.34274 0 0
rfemur -36.3371 5.66069 17.9897
rtibia 35.7093 0 0
rfoot -17.4907 -4.33883 0
rtoes -15.0512 0 0
lowerback -6.81573 -4.35392 -3.5318
upperback -1.30737 -5.60146 2.95274
thorax 3.09993 -2.85189 4.4822
lowerneck -19.6739 -5.396 -13.134
upperneck 21.0177 -6.99023 13.73
head 11.0328 -2.6736 6.16728
lclavicle -2.5963e-014 5.33513e-015 0
lhumerus -24.4227 -25.9933 98.1617
lradius 28.4694 0 0
lwrist 6.96658 0 0
lhand -10.3835 -22.1433 0
lfingers 7.12502 0 0
lthumb 15.6143 7.24649 0
rclavicle -2.5963e-014 5.33513e-015 0
rhumerus -46.7396 4.79341 -81.5655
rradius 31.5239 0 0
rwrist -16.8039 0 0
rhand -28.0789 -24.8673 0
rfingers 7.12502 0 0
rthumb -1.46208 -54.8393 0
